:SAMPLES-PER-SECOND 24
:FULLY-SPECIFIED
:DEGREES
424
root  -8.59661 34.6344 -5.5678 -166.398 -2.83044 177.553
RightUpLeg  25.9997 -6.99156 -12.2553
RightLeg  -4.4448 -22.2011 5.57855
RightFoot  -18.1818 1.56849 27.8111
RightToes  -1.46215e-006 3.27826e-006 1.63871e-007
Spine  2.24761 5.98676 3.62089
Spine1  1.38872 6.84639 -4.14748
HEad  -15.6893 -13.0897 0.578328
LeftShoulder1  2.48939 -4.34207 -25.5791
LeftArm  19.9067 2.23651 -34.6304
LeftForeArm  24.5096 -77.6115 -78.2882
LeftHand  0.178069 0.016606 -3.88296
RightShoulder  2.67371 4.92938 25.6636
RightArm  -8.40165 -15.0951 20.091
RightForeArm  135.556 45.95 167.326
RightHand  0.187337 -5.82117 -44.0986
LeftUpLeg  -56.6017 4.25177 -0.549443
LeftLeg  48.0061 -6.40517 -7.13166
LeftFoot  0.324023 0.339174 -3.33997
LeftToes  1.24762e-006 1.46925e-008 1.29056e-009
425
root  -8.60228 34.6106 -5.53505 -166.884 -3.24649 177.764
RightUpLeg  26.6501 -6.75131 -11.9905
RightLeg  -4.25713 -20.8033 5.06599
RightFoot  -18.1036 1.51253 27.2221
RightToes  -1.46215e-006 3.27826e-006 1.63871e-007
Spine  4.83496 9.72184 14.9712
Spine1  2.78836 14.283 -19.3807
HEad  -19.7697 -24.3042 7.30567
LeftShoulder1  2.59164 -4.30679 -27.0875
LeftArm  22.2156 8.73906 -28.7161
LeftForeArm  28.2288 -77.7173 -87.017
LeftHand  0.343653 -0.965318 -6.22076
RightShoulder  1.98058 4.44176 18.4006
RightArm  -17.493 6.41223 13.5536
RightForeArm  138.783 64.8455 146.645
RightHand  -0.692388 -3.12024 -35.2733
LeftUpLeg  -56.3672 4.23663 -0.582608
LeftLeg  48.2339 -6.21512 -6.96591
LeftFoot  0.582871 0.279688 -2.71141
LeftToes  1.24762e-006 1.46925e-008 1.29056e-009
426
root  -8.56607 34.5596 -5.3474 -167.277 -0.903976 178.218
RightUpLeg  26.1155 -6.98809 -13.236
RightLeg  -3.42973 -16.4145 4.15517
RightFoot  -19.3873 1.76607 26.5562
RightToes  -1.46215e-006 3.27826e-006 1.63871e-007
Spine  6.23487 10.9332 19.9384
Spine1  3.61525 17.1895 -24.5334
HEad  -18.6597 -25.5803 6.42614
LeftShoulder1  2.62583 -4.2876 -27.622
LeftArm  22.5824 21.9149 -24.0157
LeftForeArm  38.1676 -77.5465 -99.4693
LeftHand  0.41034 -0.462008 -8.16742
RightShoulder  1.04453 2.85964 8.88777
RightArm  -29.4839 44.8659 7.14159
RightForeArm  33.4345 46.3255 18.9231
RightHand  -1.74318 1.69825 -29.0829
LeftUpLeg  -56.402 5.165 0.160383
LeftLeg  48.7268 -4.94202 -5.56002
LeftFoot  0.770416 0.274697 -2.64065
LeftToes  1.24762e-006 1.46925e-008 1.29056e-009
427
root  -8.4128 34.5198 -5.19788 -167.341 0.556549 177.804
RightUpLeg  25.8561 -7.0049 -14.052
RightLeg  -3.73443 -14.6218 3.61605
RightFoot  -20.4983 1.9699 25.9361
RightToes  -1.46215e-006 3.27826e-006 1.63871e-007
Spine  6.74968 11.8661 21.2875
Spine1  4.40022 18.7537 -25.6349
HEad  -17.5225 -24.7958 5.24475
LeftShoulder1  2.66082 -4.58434 -26.7976
LeftArm  26.6585 30.8684 -23.9938
LeftForeArm  30.4394 -77.6499 -93.2952
LeftHand  0.382706 0.99927 -10.4148
RightShoulder  0.465016 0.875855 2.43674
RightArm  -68.9125 69.7164 -13.6047
RightForeArm  35.4477 -3.12929 2.5827
RightHand  -0.818115 0.311895 -14.6642
LeftUpLeg  -56.6523 5.56044 0.00998261
LeftLeg  48.8571 -3.73751 -4.12512
LeftFoot  1.48743 0.276652 -2.5415
LeftToes  1.24762e-006 1.46925e-008 1.29056e-009
428
root  -8.20204 34.5395 -5.09121 -167.639 -0.674316 177.283
RightUpLeg  26.2084 -6.73399 -13.021
RightLeg  -3.72564 -17.3703 3.58498
RightFoot  -20.8172 1.97413 25.1592
RightToes  -1.46215e-006 3.27826e-006 1.63871e-007
Spine  6.11557 12.3196 20.7759
Spine1  6.77592 19.3889 -24.2874
HEad  -18.5743 -25.2951 6.88356
LeftShoulder1  2.69796 -4.79945 -26.3764
LeftArm  30.5989 31.9172 -25.7116
LeftForeArm  17.5654 -77.5102 -80.7359
LeftHand  0.359092 1.48817 -11.0749
RightShoulder  0.317567 0.203414 0.13405
RightArm  -89.0049 72.1858 -31.2885
RightForeArm  30.171 -6.30363 3.06956
RightHand  -0.182589 -1.75092 -5.60368
LeftUpLeg  -56.4928 4.84131 -0.453928
LeftLeg  48.3373 -3.56196 -3.8361
LeftFoot  2.58765 0.24768 -2.15636
LeftToes  1.24762e-006 1.46925e-008 1.29056e-009
429
root  -7.99777 34.5967 -4.93947 -168.195 -1.82614 177.132
RightUpLeg  26.3043 -6.83052 -12.2713
RightLeg  -2.67197 -18.9389 3.6459
RightFoot  -21.3565 2.02618 24.4448
RightToes  -1.46215e-006 3.27826e-006 1.63871e-007
Spine  4.7643 11.7619 19.2925
Spine1  9.32341 18.4389 -21.4849
HEad  -17.973 -25.6182 7.85241
LeftShoulder1  2.69601 -4.78442 -26.4128
LeftArm  31.4858 30.8374 -27.133
LeftForeArm  12.9591 -77.2522 -74.5991
LeftHand  0.38025 0.917196 -10.1068
RightShoulder  0.291991 -0.0144221 -0.0916205
RightArm  -85.0211 72.5936 -31.1625
RightForeArm  28.7461 -6.67048 5.16229
RightHand  -0.303092 -0.448232 -7.12244
LeftUpLeg  -55.8664 4.71027 -0.662629
LeftLeg  47.4618 -4.17133 -4.42025
LeftFoot  3.6272 0.214062 -1.79655
LeftToes  1.24762e-006 1.46925e-008 1.29056e-009
430
root  -7.79719 34.6618 -4.73879 -168.278 -1.25977 177.065
RightUpLeg  25.7869 -6.9792 -12.4579
RightLeg  -2.20396 -17.8501 3.56273
RightFoot  -22.1909 2.21389 24.558
RightToes  -1.46215e-006 3.27826e-006 1.63871e-007
Spine  4.09371 11.2846 18.5047
Spine1  10.103 17.7665 -20.5862
HEad  -16.7705 -25.2682 8.09058
LeftShoulder1  2.64194 -4.78871 -25.7182
LeftArm  31.0831 29.9491 -27.8003
LeftForeArm  12.4026 -77.135 -72.2749
LeftHand  0.440676 0.163405 -9.86642
RightShoulder  0.282937 -0.207265 0.15077
RightArm  -95.5607 74.9276 -39.3716
RightForeArm  33.3769 -6.44878 4.20104
RightHand  -0.307988 -1.18495 -8.4076
LeftUpLeg  -55.4553 5.74558 -0.711437
LeftLeg  46.3352 -4.55905 -4.67329
LeftFoot  4.15184 0.228412 -1.8647
LeftToes  1.24762e-006 1.46925e-008 1.29056e-009
431
root  -7.63113 34.763 -4.55305 -167.86 -0.821091 177.078
RightUpLeg  25.1027 -6.83067 -12.165
RightLeg  -2.61078 -17.7312 3.6145
RightFoot  -22.2788 2.23804 24.6168
RightToes  -1.46215e-006 3.27826e-006 1.63871e-007
Spine  3.8294 11.262 18.4621
Spine1  10.2179 17.8208 -20.8829
HEad  -17.9332 -24.5864 8.5363
LeftShoulder1  2.60162 -4.80641 -25.1409
LeftArm  30.6759 28.7162 -28.1897
LeftForeArm  10.2163 -76.9366 -69.5276
LeftHand  0.516883 -0.34686 -10.4696
RightShoulder  0.294911 -0.0574467 0.123651
RightArm  -96.8527 74.752 -39.6538
RightForeArm  32.0053 -6.40518 3.8227
RightHand  -0.275316 -1.62105 -8.32678
LeftUpLeg  -55.1592 5.9841 -0.34494
LeftLeg  44.6445 -4.55441 -4.38775
LeftFoot  4.34625 0.340543 -2.66501
LeftToes  1.24762e-006 1.46925e-008 1.29056e-009
432
root  -7.5077 34.9044 -4.39471 -167.564 -1.15742 177.107
RightUpLeg  24.585 -6.74703 -11.6463
RightLeg  -2.74616 -18.3054 3.83105
RightFoot  -21.9701 2.11783 24.0544
RightToes  -1.46215e-006 3.27826e-006 1.63871e-007
Spine  3.34493 11.0886 18.1232
Spine1  10.8595 17.5077 -20.2266
HEad  -19.4442 -23.9592 8.14958
LeftShoulder1  2.62706 -4.78603 -25.5414
LeftArm  30.5888 28.3282 -28.6105
LeftForeArm  8.25502 -76.7288 -67.0689
LeftHand  0.519513 -0.412283 -10.3968
RightShoulder  0.296493 -0.0166557 0.0601477
RightArm  -91.2059 73.9505 -34.8388
RightForeArm  31.6194 -6.4689 4.1693
RightHand  -0.361329 -0.860576 -9.21719
LeftUpLeg  -54.5996 5.07536 0.270106
LeftLeg  42.5817 -4.53525 -4.04877
LeftFoot  5.04377 0.472129 -3.49235
LeftToes  1.24762e-006 1.46925e-008 1.29056e-009
433
root  -7.35664 35.0456 -4.23481 -167.437 -1.28836 176.929
RightUpLeg  24.1354 -6.70263 -11.4047
RightLeg  -2.75188 -18.3356 3.89848
RightFoot  -21.8473 2.08855 24.0154
RightToes  -1.46215e-006 3.27826e-006 1.63871e-007
Spine  3.37667 10.9106 17.7884
Spine1  11.2476 17.3811 -20.1297
HEad  -20.1319 -23.787 7.84678
LeftShoulder1  2.64403 -4.83747 -25.5505
LeftArm  31.0889 28.8401 -29.2609
LeftForeArm  8.43767 -76.682 -66.3872
LeftHand  0.463733 0.0246632 -10.1012
RightShoulder  0.29388 -0.134 0.310524
RightArm  -93.2388 74.0393 -36.5941
RightForeArm  33.3249 -6.37792 3.7741
RightHand  -0.328083 -1.39945 -9.42423
LeftUpLeg  -54.0644 4.72662 0.497468
LeftLeg  40.847 -4.4722 -3.73895
LeftFoot  5.96288 0.53445 -3.75072
LeftToes  1.24762e-006 1.46925e-008 1.29056e-009
